<?xml version="1.0" encoding="utf-8"?><svg viewBox="0 0 612.01 612.01" xmlns="http://www.w3.org/2000/svg" xmlns:xlink="http://www.w3.org/1999/xlink"><style>:root>svg{display:none}:root>svg:target{display:block}</style><svg fill="none" viewBox="0 0 26 23" id="cart" xmlns="http://www.w3.org/2000/svg"><path d="M20.413 16.441H11.01c-1.115 0-2.103-.769-2.4-1.87L5.43 3.15a1.504 1.504 0 00-1.44-1.12H1.5c-.276 0-.5-.23-.5-.514C1 1.23 1.224 1 1.5 1h2.49c1.115 0 2.103.769 2.401 1.87l.627 2.248H23.5c.48 0 .918.226 1.203.621.286.396.371.894.233 1.365l-2.15 7.567c-.347 1.066-1.298 1.77-2.372 1.77zM7.304 6.147l2.267 8.145c.18.66.77 1.12 1.44 1.12h9.402c.634 0 1.216-.432 1.416-1.048l2.15-7.554a.523.523 0 00-.079-.455.488.488 0 00-.4-.208H7.303zM12 22c-1.103 0-2-.923-2-2.059 0-1.135.897-2.059 2-2.059s2 .924 2 2.06C14 21.076 13.103 22 12 22zm0-3.088c-.552 0-1 .462-1 1.03 0 .566.448 1.029 1 1.029s1-.463 1-1.03-.448-1.03-1-1.03zM19 22c-1.103 0-2-.923-2-2.059 0-1.135.897-2.059 2-2.059s2 .924 2 2.06C21 21.076 20.103 22 19 22zm0-3.088c-.552 0-1 .462-1 1.03 0 .566.448 1.029 1 1.029s1-.463 1-1.03-.448-1.03-1-1.03z" fill="#24390B" stroke="#24390B" stroke-width=".8"/></svg><svg viewBox="0 0 140 26" fill="none" id="landix" xmlns="http://www.w3.org/2000/svg"><path d="M51.432 3.253v16.323h6.616v3.087H47.405V3.253h4.027zM66.879 7.007c2.56 0 4.315 1.168 5.264 2.447V7.258H76.2v15.405h-4.056V20.41c-.95 1.335-2.761 2.503-5.293 2.503-4.027 0-7.249-3.198-7.249-8.008 0-4.811 3.222-7.898 7.278-7.898zm1.036 3.42c-2.158 0-4.2 1.558-4.2 4.478s2.042 4.588 4.2 4.588c2.214 0 4.228-1.613 4.228-4.533 0-2.92-2.014-4.532-4.228-4.532zM91.3 14.154c0-2.475-1.409-3.81-3.537-3.81-2.187 0-3.596 1.335-3.596 3.81v8.509H80.14V7.258h4.027v1.918c1.035-1.307 2.761-2.14 4.804-2.14 3.71 0 6.357 2.335 6.357 6.59v9.037H91.3v-8.51zM105.424 7.007c2.1 0 4.114.946 5.207 2.392V2.085h4.084v20.578h-4.084v-2.28c-.949 1.418-2.733 2.53-5.235 2.53-4.056 0-7.278-3.198-7.278-8.008 0-4.811 3.222-7.898 7.306-7.898zm1.007 3.42c-2.157 0-4.2 1.558-4.2 4.478s2.043 4.588 4.2 4.588c2.215 0 4.229-1.613 4.229-4.533 0-2.92-2.014-4.532-4.229-4.532zM118.225 3.142c0-1.28 1.035-2.28 2.474-2.28 1.409 0 2.473 1 2.473 2.28 0 1.28-1.064 2.28-2.473 2.28-1.439 0-2.474-1-2.474-2.28zm.431 4.116h4.027v15.405h-4.027V7.258zM132.176 17.88l-2.905 4.783h-4.315l5.206-7.73-5.264-7.676h4.545l3.251 4.755 2.934-4.755h4.314l-5.235 7.675 5.293 7.73h-4.545l-3.279-4.782z" fill="#021135"/><path d="M26.895 26c-2.445 0-4.746-.64-6.73-1.752 4.027-2.252 6.73-6.451 6.73-11.262H13.433c0-4.81 2.704-9.01 6.731-11.262A14.01 14.01 0 0126.895.028c7.422 0 13.434 5.812 13.434 12.986S34.317 26 26.895 26z" fill="#D3D3D3"/><path d="M20.164 24.276c-4.027-2.253-6.73-6.452-6.73-11.262h13.433c.028 4.81-2.675 9.01-6.703 11.262z" fill="url(#bpaint0_linear_2:8052)"/><path d="M20.164 24.276c4.027-2.253 6.731-6.451 6.731-11.262H13.433c0-4.81 2.704-9.01 6.731-11.262A13.743 13.743 0 0013.434 0C6.011.028 0 5.84 0 13.014 0 20.188 6.012 26 13.433 26c2.445 0 4.747-.612 6.731-1.724z" fill="#588535"/><path d="M13.433 13.014h13.434L20.164 1.752c-4.027 2.252-6.73 6.451-6.73 11.262z" fill="url(#bpaint1_linear_2:8052)" opacity=".3"/><path d="M13.433 12.986c0-4.81 2.704-9.01 6.731-11.262A14.03 14.03 0 0013.434 0C10.987 0 8.686.64 6.73 1.724l6.702 11.262z" fill="url(#bpaint2_linear_2:8052)" opacity=".3"/><defs><linearGradient id="bpaint0_linear_2:8052" x1="6.632" y1="3.25" x2="27.241" y2="23.68" gradientUnits="userSpaceOnUse"><stop stop-color="#FFCF8B"/><stop offset="1" stop-color="#FF8B79"/></linearGradient><linearGradient id="bpaint1_linear_2:8052" x1="20.164" y1="-8.654" x2="20.164" y2="12.663" gradientUnits="userSpaceOnUse"><stop offset=".493" stop-color="#fff"/><stop offset=".538" stop-color="#F3F3F3"/><stop offset=".621" stop-color="#D1D1D1"/><stop offset=".731" stop-color="#9C9C9C"/><stop offset=".866" stop-color="#515151"/><stop offset="1"/></linearGradient><linearGradient id="bpaint2_linear_2:8052" x1="9.337" y1="-4.394" x2="16.907" y2="8.366" gradientUnits="userSpaceOnUse"><stop offset=".493" stop-color="#fff"/><stop offset=".538" stop-color="#F3F3F3"/><stop offset=".621" stop-color="#D1D1D1"/><stop offset=".731" stop-color="#9C9C9C"/><stop offset=".866" stop-color="#515151"/><stop offset="1"/></linearGradient></defs></svg><svg viewBox="0 0 612.01 612.01" id="search" xmlns="http://www.w3.org/2000/svg"><path d="M606.209 578.714L448.198 423.228C489.576 378.272 515 318.817 515 253.393 514.98 113.439 399.704 0 257.493 0S.006 113.439.006 253.393s115.276 253.393 257.487 253.393c61.445 0 117.801-21.253 162.068-56.586l158.624 156.099c7.729 7.614 20.277 7.614 28.006 0a19.291 19.291 0 00.018-27.585zM257.493 467.8c-120.326 0-217.869-95.993-217.869-214.407S137.167 38.986 257.493 38.986c120.327 0 217.869 95.993 217.869 214.407S377.82 467.8 257.493 467.8z" data-original="#000000"/></svg><svg fill="none" viewBox="0 0 18 22" id="user" xmlns="http://www.w3.org/2000/svg"><circle cx="9" cy="6" r="5" stroke="#24390B" stroke-width="2"/><path d="M17 22a8 8 0 10-16 0" stroke="#24390B" stroke-width="2"/></svg></svg>